<svg width="1686" height="97" viewBox="0 0 1686 97" fill="none" xmlns="http://www.w3.org/2000/svg">
<g opacity="0.18">
<rect y="28.8936" width="7.05439" height="39.2128" rx="3.5272" fill="#FFD74B"/>
<rect x="14.1088" width="7.05439" height="97" rx="3.5272" fill="#FFD74B"/>
<rect x="28.2175" y="20.6382" width="7.05439" height="63.9787" rx="3.5272" fill="#FFD74B"/>
<rect x="70.5439" y="20.6382" width="7.05439" height="63.9787" rx="3.5272" fill="#FFD74B"/>
<rect x="84.6527" y="20.6382" width="7.05439" height="63.9787" rx="3.5272" fill="#FFD74B"/>
<rect x="42.3264" width="7.05439" height="97" rx="3.5272" fill="#FFD74B"/>
<rect x="98.7615" width="7.05439" height="97" rx="3.5272" fill="#FFD74B"/>
<rect x="56.4352" y="28.8936" width="7.05439" height="39.2128" rx="3.5272" fill="#FFD74B"/>
<rect x="111.695" y="28.8936" width="7.05439" height="39.2128" rx="3.5272" fill="#FFD74B"/>
<rect x="125.803" width="7.05439" height="97" rx="3.5272" fill="#FFD74B"/>
<rect x="139.912" y="20.6382" width="7.05439" height="63.9787" rx="3.5272" fill="#FFD74B"/>
<rect x="182.239" y="20.6382" width="7.05439" height="63.9787" rx="3.5272" fill="#FFD74B"/>
<rect x="196.347" y="20.6382" width="7.05439" height="63.9787" rx="3.5272" fill="#FFD74B"/>
<rect x="154.021" width="7.05439" height="97" rx="3.5272" fill="#FFD74B"/>
<rect x="210.456" width="7.05439" height="97" rx="3.5272" fill="#FFD74B"/>
<rect x="168.13" y="28.8936" width="7.05439" height="39.2128" rx="3.5272" fill="#FFD74B"/>
<rect x="223.389" y="28.8936" width="7.05439" height="39.2128" rx="3.5272" fill="#FFD74B"/>
<rect x="237.498" width="7.05439" height="97" rx="3.5272" fill="#FFD74B"/>
<rect x="251.607" y="20.6382" width="7.05439" height="63.9787" rx="3.5272" fill="#FFD74B"/>
<rect x="293.933" y="20.6382" width="7.05439" height="63.9787" rx="3.5272" fill="#FFD74B"/>
<rect x="308.042" y="20.6382" width="7.05439" height="63.9787" rx="3.5272" fill="#FFD74B"/>
<rect x="265.715" width="7.05439" height="97" rx="3.5272" fill="#FFD74B"/>
<rect x="322.151" width="7.05439" height="97" rx="3.5272" fill="#FFD74B"/>
<rect x="279.824" y="28.8936" width="7.05439" height="39.2128" rx="3.5272" fill="#FFD74B"/>
<rect width="7.05439" height="39.2128" rx="3.5272" transform="matrix(-1 0 0 1 426.791 28.8936)" fill="#FFD74B"/>
<rect width="7.05439" height="97" rx="3.5272" transform="matrix(-1 0 0 1 412.682 0)" fill="#FFD74B"/>
<rect width="7.05439" height="63.9787" rx="3.5272" transform="matrix(-1 0 0 1 398.573 20.6382)" fill="#FFD74B"/>
<rect width="7.05439" height="63.9787" rx="3.5272" transform="matrix(-1 0 0 1 356.247 20.6382)" fill="#FFD74B"/>
<rect width="7.05439" height="63.9787" rx="3.5272" transform="matrix(-1 0 0 1 342.138 20.6382)" fill="#FFD74B"/>
<rect width="7.05439" height="97" rx="3.5272" transform="matrix(-1 0 0 1 384.464 0)" fill="#FFD74B"/>
<rect width="7.05439" height="39.2128" rx="3.5272" transform="matrix(-1 0 0 1 370.356 28.8936)" fill="#FFD74B"/>
<rect x="419.736" y="28.8936" width="7.05439" height="39.2128" rx="3.5272" fill="#FFD74B"/>
<rect x="433.845" width="7.05439" height="97" rx="3.5272" fill="#FFD74B"/>
<rect x="447.954" y="20.6382" width="7.05439" height="63.9787" rx="3.5272" fill="#FFD74B"/>
<rect x="490.28" y="20.6382" width="7.05439" height="63.9787" rx="3.5272" fill="#FFD74B"/>
<rect x="504.389" y="20.6382" width="7.05439" height="63.9787" rx="3.5272" fill="#FFD74B"/>
<rect x="462.063" width="7.05439" height="97" rx="3.5272" fill="#FFD74B"/>
<rect x="518.498" width="7.05439" height="97" rx="3.5272" fill="#FFD74B"/>
<rect x="476.172" y="28.8936" width="7.05439" height="39.2128" rx="3.5272" fill="#FFD74B"/>
<rect x="531.431" y="28.8936" width="7.05439" height="39.2128" rx="3.5272" fill="#FFD74B"/>
<rect x="545.54" width="7.05439" height="97" rx="3.5272" fill="#FFD74B"/>
<rect x="559.649" y="20.6382" width="7.05439" height="63.9787" rx="3.5272" fill="#FFD74B"/>
<rect x="601.975" y="20.6382" width="7.05439" height="63.9787" rx="3.5272" fill="#FFD74B"/>
<rect x="616.084" y="20.6382" width="7.05439" height="63.9787" rx="3.5272" fill="#FFD74B"/>
<rect x="573.757" width="7.05439" height="97" rx="3.5272" fill="#FFD74B"/>
<rect x="630.193" width="7.05439" height="97" rx="3.5272" fill="#FFD74B"/>
<rect x="587.866" y="28.8936" width="7.05439" height="39.2128" rx="3.5272" fill="#FFD74B"/>
<rect x="643.125" y="28.8936" width="7.05439" height="39.2128" rx="3.5272" fill="#FFD74B"/>
<rect x="657.234" width="7.05439" height="97" rx="3.5272" fill="#FFD74B"/>
<rect x="671.343" y="20.6382" width="7.05439" height="63.9787" rx="3.5272" fill="#FFD74B"/>
<rect x="713.669" y="20.6382" width="7.05439" height="63.9787" rx="3.5272" fill="#FFD74B"/>
<rect x="727.778" y="20.6382" width="7.05439" height="63.9787" rx="3.5272" fill="#FFD74B"/>
<rect x="685.452" width="7.05439" height="97" rx="3.5272" fill="#FFD74B"/>
<rect x="741.887" width="7.05439" height="97" rx="3.5272" fill="#FFD74B"/>
<rect x="699.561" y="28.8936" width="7.05439" height="39.2128" rx="3.5272" fill="#FFD74B"/>
<rect width="7.05439" height="39.2128" rx="3.5272" transform="matrix(-1 0 0 1 846.527 28.8936)" fill="#FFD74B"/>
<rect width="7.05439" height="97" rx="3.5272" transform="matrix(-1 0 0 1 832.419 0)" fill="#FFD74B"/>
<rect width="7.05439" height="63.9787" rx="3.5272" transform="matrix(-1 0 0 1 818.31 20.6382)" fill="#FFD74B"/>
<rect width="7.05439" height="63.9787" rx="3.5272" transform="matrix(-1 0 0 1 775.983 20.6382)" fill="#FFD74B"/>
<rect width="7.05439" height="63.9787" rx="3.5272" transform="matrix(-1 0 0 1 761.875 20.6382)" fill="#FFD74B"/>
<rect width="7.05439" height="97" rx="3.5272" transform="matrix(-1 0 0 1 804.201 0)" fill="#FFD74B"/>
<rect width="7.05439" height="39.2128" rx="3.5272" transform="matrix(-1 0 0 1 790.092 28.8936)" fill="#FFD74B"/>
<rect x="839.473" y="28.8936" width="7.05439" height="39.2128" rx="3.5272" fill="#FFD74B"/>
<rect x="853.582" width="7.05439" height="97" rx="3.5272" fill="#FFD74B"/>
<rect x="867.69" y="20.6382" width="7.05439" height="63.9787" rx="3.5272" fill="#FFD74B"/>
<rect x="910.017" y="20.6382" width="7.05439" height="63.9787" rx="3.5272" fill="#FFD74B"/>
<rect x="924.126" y="20.6382" width="7.05439" height="63.9787" rx="3.5272" fill="#FFD74B"/>
<rect x="881.799" width="7.05439" height="97" rx="3.5272" fill="#FFD74B"/>
<rect x="938.234" width="7.05439" height="97" rx="3.5272" fill="#FFD74B"/>
<rect x="895.908" y="28.8936" width="7.05439" height="39.2128" rx="3.5272" fill="#FFD74B"/>
<rect x="951.167" y="28.8936" width="7.05439" height="39.2128" rx="3.5272" fill="#FFD74B"/>
<rect x="965.276" width="7.05439" height="97" rx="3.5272" fill="#FFD74B"/>
<rect x="979.385" y="20.6382" width="7.05439" height="63.9787" rx="3.5272" fill="#FFD74B"/>
<rect x="1021.71" y="20.6382" width="7.05439" height="63.9787" rx="3.5272" fill="#FFD74B"/>
<rect x="1035.82" y="20.6382" width="7.05439" height="63.9787" rx="3.5272" fill="#FFD74B"/>
<rect x="993.494" width="7.05439" height="97" rx="3.5272" fill="#FFD74B"/>
<rect x="1049.93" width="7.05439" height="97" rx="3.5272" fill="#FFD74B"/>
<rect x="1007.6" y="28.8936" width="7.05439" height="39.2128" rx="3.5272" fill="#FFD74B"/>
<rect x="1062.86" y="28.8936" width="7.05439" height="39.2128" rx="3.5272" fill="#FFD74B"/>
<rect x="1076.97" width="7.05439" height="97" rx="3.5272" fill="#FFD74B"/>
<rect x="1091.08" y="20.6382" width="7.05439" height="63.9787" rx="3.5272" fill="#FFD74B"/>
<rect x="1133.41" y="20.6382" width="7.05439" height="63.9787" rx="3.5272" fill="#FFD74B"/>
<rect x="1147.51" y="20.6382" width="7.05439" height="63.9787" rx="3.5272" fill="#FFD74B"/>
<rect x="1105.19" width="7.05439" height="97" rx="3.5272" fill="#FFD74B"/>
<rect x="1161.62" width="7.05439" height="97" rx="3.5272" fill="#FFD74B"/>
<rect x="1119.3" y="28.8936" width="7.05439" height="39.2128" rx="3.5272" fill="#FFD74B"/>
<rect width="7.05439" height="39.2128" rx="3.5272" transform="matrix(-1 0 0 1 1266.26 28.8936)" fill="#FFD74B"/>
<rect width="7.05439" height="97" rx="3.5272" transform="matrix(-1 0 0 1 1252.15 0)" fill="#FFD74B"/>
<rect width="7.05439" height="63.9787" rx="3.5272" transform="matrix(-1 0 0 1 1238.05 20.6382)" fill="#FFD74B"/>
<rect width="7.05439" height="63.9787" rx="3.5272" transform="matrix(-1 0 0 1 1195.72 20.6382)" fill="#FFD74B"/>
<rect width="7.05439" height="63.9787" rx="3.5272" transform="matrix(-1 0 0 1 1181.61 20.6382)" fill="#FFD74B"/>
<rect width="7.05439" height="97" rx="3.5272" transform="matrix(-1 0 0 1 1223.94 0)" fill="#FFD74B"/>
<rect width="7.05439" height="39.2128" rx="3.5272" transform="matrix(-1 0 0 1 1209.83 28.8936)" fill="#FFD74B"/>
<rect x="1259.21" y="28.8936" width="7.05439" height="39.2128" rx="3.5272" fill="#FFD74B"/>
<rect x="1273.32" width="7.05439" height="97" rx="3.5272" fill="#FFD74B"/>
<rect x="1287.43" y="20.6382" width="7.05439" height="63.9787" rx="3.5272" fill="#FFD74B"/>
<rect x="1329.75" y="20.6382" width="7.05439" height="63.9787" rx="3.5272" fill="#FFD74B"/>
<rect x="1343.86" y="20.6382" width="7.05439" height="63.9787" rx="3.5272" fill="#FFD74B"/>
<rect x="1301.54" width="7.05439" height="97" rx="3.5272" fill="#FFD74B"/>
<rect x="1357.97" width="7.05439" height="97" rx="3.5272" fill="#FFD74B"/>
<rect x="1315.64" y="28.8936" width="7.05439" height="39.2128" rx="3.5272" fill="#FFD74B"/>
<rect x="1370.9" y="28.8936" width="7.05439" height="39.2128" rx="3.5272" fill="#FFD74B"/>
<rect x="1385.01" width="7.05439" height="97" rx="3.5272" fill="#FFD74B"/>
<rect x="1399.12" y="20.6382" width="7.05439" height="63.9787" rx="3.5272" fill="#FFD74B"/>
<rect x="1441.45" y="20.6382" width="7.05439" height="63.9787" rx="3.5272" fill="#FFD74B"/>
<rect x="1455.56" y="20.6382" width="7.05439" height="63.9787" rx="3.5272" fill="#FFD74B"/>
<rect x="1413.23" width="7.05439" height="97" rx="3.5272" fill="#FFD74B"/>
<rect x="1469.67" width="7.05439" height="97" rx="3.5272" fill="#FFD74B"/>
<rect x="1427.34" y="28.8936" width="7.05439" height="39.2128" rx="3.5272" fill="#FFD74B"/>
<rect x="1482.6" y="28.8936" width="7.05439" height="39.2128" rx="3.5272" fill="#FFD74B"/>
<rect x="1496.71" width="7.05439" height="97" rx="3.5272" fill="#FFD74B"/>
<rect x="1510.82" y="20.6382" width="7.05439" height="63.9787" rx="3.5272" fill="#FFD74B"/>
<rect x="1553.14" y="20.6382" width="7.05439" height="63.9787" rx="3.5272" fill="#FFD74B"/>
<rect x="1567.25" y="20.6382" width="7.05439" height="63.9787" rx="3.5272" fill="#FFD74B"/>
<rect x="1524.92" width="7.05439" height="97" rx="3.5272" fill="#FFD74B"/>
<rect x="1581.36" width="7.05439" height="97" rx="3.5272" fill="#FFD74B"/>
<rect x="1539.03" y="28.8936" width="7.05439" height="39.2128" rx="3.5272" fill="#FFD74B"/>
<rect width="7.05439" height="39.2128" rx="3.5272" transform="matrix(-1 0 0 1 1686 28.8936)" fill="#FFD74B"/>
<rect width="7.05439" height="97" rx="3.5272" transform="matrix(-1 0 0 1 1671.89 0)" fill="#FFD74B"/>
<rect width="7.05439" height="63.9787" rx="3.5272" transform="matrix(-1 0 0 1 1657.78 20.6382)" fill="#FFD74B"/>
<rect width="7.05439" height="63.9787" rx="3.5272" transform="matrix(-1 0 0 1 1615.46 20.6382)" fill="#FFD74B"/>
<rect width="7.05439" height="63.9787" rx="3.5272" transform="matrix(-1 0 0 1 1601.35 20.6382)" fill="#FFD74B"/>
<rect width="7.05439" height="97" rx="3.5272" transform="matrix(-1 0 0 1 1643.67 0)" fill="#FFD74B"/>
<rect width="7.05439" height="39.2128" rx="3.5272" transform="matrix(-1 0 0 1 1629.56 28.8936)" fill="#FFD74B"/>
</g>
</svg>
