<svg width="14" height="14" viewBox="0 0 14 14" fill="none" xmlns="http://www.w3.org/2000/svg">
<path d="M12.625 12.9999C12.7285 13.1035 12.8964 13.1035 13 12.9999C13.1035 12.8964 13.1035 12.7285 13 12.6249L1.37502 0.999975C1.27147 0.896422 1.10358 0.896422 1.00002 0.999975C0.896472 1.10353 0.896472 1.27142 1.00002 1.37497L12.625 12.9999Z" fill="white"/>
<path d="M13 1.37497C13.1035 1.27142 13.1035 1.10353 13 0.999975C12.8964 0.896422 12.7285 0.896422 12.625 0.999975L1.00003 12.6249C0.896472 12.7285 0.896473 12.8964 1.00003 12.9999C1.10358 13.1035 1.27147 13.1035 1.37502 12.9999L13 1.37497Z" fill="white"/>
</svg>
