<svg width="58" height="58" viewBox="0 0 58 58" fill="none" xmlns="http://www.w3.org/2000/svg">
<path opacity="0.3" d="M58 0.504932L56.6353 10.4981C53.0871 10.2243 50.4941 10.9544 48.8565 12.6884C47.2188 14.4224 46.218 16.7496 45.8541 19.67C45.4902 22.5903 45.3992 25.7389 45.5812 29.1156H58V58H34.6635V23.6399C34.6635 15.2437 36.7561 8.94667 40.9412 4.74862C45.2173 0.550565 50.9035 -0.863996 58 0.504932ZM23.3365 0.504932L21.9718 10.4981C18.4235 10.2243 15.8306 10.9544 14.1929 12.6884C12.5553 14.4224 11.5545 16.7496 11.1906 19.67C10.8267 22.5903 10.7357 25.7389 10.9176 29.1156H23.3365V58H0V23.6399C0 15.2437 2.09255 8.94667 6.27765 4.74862C10.5537 0.550565 16.24 -0.863996 23.3365 0.504932Z" fill="#68BF33"/>
</svg>
