<svg width="58" height="58" viewBox="0 0 58 58" fill="none" xmlns="http://www.w3.org/2000/svg">
<path opacity="0.3" d="M4.41426e-08 57.4951L1.3647 47.5019C4.91294 47.7757 7.50588 47.0456 9.14353 45.3116C10.7812 43.5776 11.782 41.2504 12.1459 38.33C12.5098 35.4097 12.6008 32.2611 12.4188 28.8844L2.54536e-06 28.8844L5.07052e-06 -5.07052e-06L23.3365 -3.03038e-06L23.3365 34.3601C23.3365 42.7562 21.2439 49.0533 17.0588 53.2514C12.7827 57.4494 7.09647 58.864 4.41426e-08 57.4951ZM34.6635 57.4951L36.0282 47.5019C39.5765 47.7757 42.1694 47.0456 43.8071 45.3116C45.4447 43.5776 46.4455 41.2504 46.8094 38.33C47.1733 35.4097 47.2643 32.2611 47.0824 28.8844L34.6635 28.8844L34.6635 -2.04014e-06L58 0L58 34.3601C58 42.7563 55.9075 49.0533 51.7224 53.2514C47.4463 57.4494 41.76 58.864 34.6635 57.4951Z" fill="#68BF33"/>
</svg>
