<svg width="50" height="50" viewBox="0 0 50 50" fill="none" xmlns="http://www.w3.org/2000/svg">
<path d="M34.9454 20.8801C34.8985 19.8174 34.7267 19.0868 34.4805 18.4537C34.2265 17.7818 33.8358 17.1802 33.3239 16.68C32.8238 16.1721 32.2182 15.7774 31.554 15.5274C30.9173 15.2813 30.1905 15.1094 29.1279 15.0626C28.0572 15.0118 27.7174 15 25.002 15C22.2866 15 21.9467 15.0118 20.8801 15.0586C19.8174 15.1055 19.0868 15.2775 18.4539 15.5235C17.7818 15.7774 17.1802 16.1681 16.68 16.68C16.1721 17.1802 15.7776 17.7857 15.5274 18.4499C15.2813 19.0868 15.1094 19.8134 15.0626 20.8761C15.0118 21.9467 15 22.2866 15 25.002C15 27.7174 15.0118 28.0572 15.0586 29.1239C15.1055 30.1866 15.2775 30.9172 15.5236 31.5502C15.7776 32.2222 16.1721 32.8238 16.68 33.3239C17.1802 33.8319 17.7857 34.2265 18.4499 34.4765C19.0868 34.7227 19.8134 34.8945 20.8763 34.9414C21.9428 34.9884 22.2828 35 24.9982 35C27.7136 35 28.0534 34.9884 29.1201 34.9414C30.1828 34.8945 30.9133 34.7227 31.5462 34.4765C32.8904 33.9569 33.953 32.8942 34.4727 31.5502C34.7187 30.9133 34.8907 30.1866 34.9376 29.1239C34.9844 28.0572 34.9962 27.7174 34.9962 25.002C34.9962 22.2866 34.9922 21.9467 34.9454 20.8801ZM33.1443 29.0458C33.1013 30.0225 32.9372 30.55 32.8005 30.9016C32.4644 31.7729 31.7729 32.4644 30.9016 32.8005C30.55 32.9372 30.0187 33.1013 29.0458 33.1442C27.9909 33.1912 27.6745 33.2028 25.006 33.2028C22.3374 33.2028 22.0171 33.1912 20.966 33.1442C19.9892 33.1013 19.4618 32.9372 19.1102 32.8005C18.6766 32.6402 18.2819 32.3863 17.9616 32.0542C17.6295 31.7299 17.3755 31.3391 17.2153 30.9056C17.0785 30.5539 16.9144 30.0225 16.8716 29.0497C16.8246 27.9948 16.813 27.6783 16.813 25.0098C16.813 22.3412 16.8246 22.0209 16.8716 20.97C16.9144 19.9932 17.0785 19.4658 17.2153 19.1141C17.3755 18.6804 17.6295 18.2859 17.9655 17.9654C18.2897 17.6333 18.6804 17.3793 19.1141 17.2192C19.4658 17.0825 19.9972 16.9184 20.97 16.8754C22.0249 16.8285 22.3414 16.8168 25.0098 16.8168C27.6823 16.8168 27.9986 16.8285 29.0497 16.8754C30.0265 16.9184 30.5539 17.0825 30.9056 17.2192C31.3391 17.3793 31.7338 17.6333 32.0542 17.9654C32.3863 18.2897 32.6402 18.6804 32.8005 19.1141C32.9372 19.4658 33.1013 19.997 33.1443 20.97C33.1912 22.0249 33.2029 22.3412 33.2029 25.0098C33.2029 27.6783 33.1912 27.9909 33.1443 29.0458Z" fill="white"/>
<path d="M25.002 19.8643C22.1656 19.8643 19.8643 22.1654 19.8643 25.002C19.8643 27.8386 22.1656 30.1397 25.002 30.1397C27.8386 30.1397 30.1397 27.8386 30.1397 25.002C30.1397 22.1654 27.8386 19.8643 25.002 19.8643ZM25.002 28.3347C23.1619 28.3347 21.6693 26.8423 21.6693 25.002C21.6693 23.1617 23.1619 21.6693 25.002 21.6693C26.8423 21.6693 28.3347 23.1617 28.3347 25.002C28.3347 26.8423 26.8423 28.3347 25.002 28.3347Z" fill="white"/>
<path d="M31.5423 19.6611C31.5423 20.3235 31.0053 20.8605 30.3427 20.8605C29.6804 20.8605 29.1433 20.3235 29.1433 19.6611C29.1433 18.9986 29.6804 18.4617 30.3427 18.4617C31.0053 18.4617 31.5423 18.9986 31.5423 19.6611Z" fill="white"/>
<circle cx="25" cy="25" r="24" stroke="white" stroke-width="2"/>
</svg>
