<svg width="194" height="343" viewBox="0 0 194 343" fill="none" xmlns="http://www.w3.org/2000/svg">
<path d="M189 176C189 226.81 147.81 268 97 268C46.1899 268 5.00014 226.81 5.00002 176L4.99997 147L189 147L189 176Z" stroke="#55B719" stroke-width="10"/>
<path d="M38.0002 59C38.0002 26.4152 64.4154 0 97.0002 0C129.585 0 156 26.4152 156 59V142H38.0002V59Z" fill="#FFD74B"/>
<path d="M168 172C168 211.212 136.212 243 97.0002 243C57.788 243 26.0002 211.212 26.0002 172L26.0002 117L168 117L168 172Z" fill="#55B719"/>
<rect x="92.0002" y="263" width="10" height="80" fill="#55B719"/>
<rect x="145" y="333" width="10" height="96" transform="rotate(90 145 333)" fill="#55B719"/>
</svg>
