<svg width="5" height="8" viewBox="0 0 5 8" fill="none" xmlns="http://www.w3.org/2000/svg">
<path d="M5 8H0.139027V7.09485L2.54717 4.22764C2.89474 3.80488 3.14134 3.45257 3.28699 3.17073C3.43595 2.88528 3.51043 2.59982 3.51043 2.31436C3.51043 1.93857 3.41278 1.63505 3.21748 1.40379C3.02549 1.17254 2.76564 1.05691 2.43793 1.05691C2.04734 1.05691 1.74446 1.18699 1.52929 1.44715C1.31413 1.70732 1.20655 2.06323 1.20655 2.51491H0C0 2.03433 0.0993049 1.60253 0.297915 1.21951C0.499835 0.832882 0.786164 0.532972 1.1569 0.319783C1.53095 0.106594 1.96127 0 2.44787 0C3.14962 0 3.70242 0.193315 4.10626 0.579946C4.51341 0.962963 4.71698 1.49413 4.71698 2.17344C4.71698 2.5673 4.61437 2.98103 4.40914 3.41463C4.20722 3.84463 3.87454 4.33424 3.41112 4.88347L1.6435 6.94851H5V8Z" fill="black"/>
</svg>
