<svg width="50" height="50" viewBox="0 0 50 50" fill="none" xmlns="http://www.w3.org/2000/svg">
<path d="M25 15C19.4773 15 15 19.4771 15 25C15 30.5229 19.4773 35 25 35C30.5227 35 35 30.5229 35 25C35 19.4771 30.5227 15 25 15ZM26.1507 28.3215C25.2257 28.3215 24.3557 27.8215 24.0578 27.2537C24.0578 27.2537 23.5602 29.2271 23.4557 29.6079C23.0847 30.9542 21.9936 32.3009 21.9086 32.4112C21.8495 32.4879 21.7188 32.4639 21.7053 32.362C21.6821 32.1906 21.4035 30.4922 21.7313 29.107C21.8951 28.4114 22.8326 24.4392 22.8326 24.4392C22.8326 24.4392 22.5597 23.8923 22.5597 23.0837C22.5597 21.8141 23.2954 20.8664 24.2117 20.8664C24.9906 20.8664 25.3666 21.4514 25.3666 22.1525C25.3666 22.9358 24.8682 24.1069 24.611 25.1921C24.396 26.1008 25.0663 26.842 25.9625 26.842C27.5856 26.842 28.678 24.7575 28.678 22.2874C28.678 20.4103 27.4143 19.0047 25.1142 19.0047C22.5163 19.0047 20.8963 20.9425 20.8963 23.1074C20.8963 23.8534 21.1168 24.3803 21.4618 24.7872C21.6199 24.9744 21.6425 25.0497 21.585 25.2646C21.5434 25.4223 21.4499 25.8016 21.4102 25.9516C21.3531 26.1689 21.1776 26.2462 20.981 26.1662C19.7849 25.6779 19.2271 24.3672 19.2271 22.8938C19.2271 20.4605 21.2791 17.5426 25.3493 17.5426C28.6198 17.5426 30.7725 19.9091 30.7725 22.4498C30.7727 25.811 28.904 28.3215 26.1507 28.3215Z" fill="white"/>
<circle cx="25" cy="25" r="24" stroke="white" stroke-width="2"/>
</svg>
