<svg width="515" height="30" viewBox="0 0 515 30" fill="none" xmlns="http://www.w3.org/2000/svg">
<path d="M7.57198 23.33C6.44998 23.33 5.45998 23.0917 4.60198 22.615C3.74398 22.131 3.07298 21.46 2.58898 20.602C2.11232 19.744 1.87398 18.754 1.87398 17.632V12.528C1.87398 11.406 2.11232 10.416 2.58898 9.558C3.07298 8.7 3.74398 8.03267 4.60198 7.556C5.45998 7.072 6.44998 6.83 7.57198 6.83C8.69398 6.83 9.68032 7.072 10.531 7.556C11.389 8.03267 12.06 8.7 12.544 9.558C13.028 10.416 13.27 11.406 13.27 12.528V17.632C13.27 18.754 13.028 19.744 12.544 20.602C12.06 21.46 11.389 22.131 10.531 22.615C9.68032 23.0917 8.69398 23.33 7.57198 23.33ZM7.57198 20.811C8.12932 20.811 8.63532 20.679 9.08999 20.415C9.54465 20.1437 9.90398 19.7843 10.168 19.337C10.432 18.8823 10.564 18.3763 10.564 17.819V12.33C10.564 11.7653 10.432 11.2593 10.168 10.812C9.90398 10.3573 9.54465 9.998 9.08999 9.734C8.63532 9.46267 8.12932 9.327 7.57198 9.327C7.01465 9.327 6.50865 9.46267 6.05398 9.734C5.59932 9.998 5.23998 10.3573 4.97598 10.812C4.71198 11.2593 4.57998 11.7653 4.57998 12.33V17.819C4.57998 18.3763 4.71198 18.8823 4.97598 19.337C5.23998 19.7843 5.59932 20.1437 6.05398 20.415C6.50865 20.679 7.01465 20.811 7.57198 20.811ZM17.2345 21.57V18.853H19.9515V21.57H17.2345ZM17.2565 15.267V12.55H19.9735V15.267H17.2565ZM26.6455 23V10.053L23.6755 11.868V8.942L26.6455 7.16H29.3515V23H26.6455ZM39.02 23.33C37.986 23.33 37.0546 23.088 36.226 22.604C35.4046 22.1127 34.752 21.4343 34.268 20.569C33.784 19.7037 33.542 18.71 33.542 17.588V12.77C33.542 11.5673 33.7803 10.5223 34.257 9.635C34.741 8.74767 35.4156 8.062 36.281 7.578C37.1536 7.094 38.1656 6.852 39.317 6.852C40.1163 6.852 40.8753 6.98767 41.594 7.259C42.3126 7.523 42.9506 7.94833 43.508 8.535L41.594 10.394C41.3153 10.064 40.9743 9.80367 40.571 9.613C40.175 9.42233 39.757 9.327 39.317 9.327C38.701 9.327 38.162 9.47367 37.7 9.767C37.238 10.053 36.8786 10.4307 36.622 10.9C36.3726 11.3693 36.248 11.8717 36.248 12.407V15.036L35.764 14.508C36.2186 13.98 36.765 13.5693 37.403 13.276C38.041 12.9753 38.7083 12.825 39.405 12.825C40.4023 12.825 41.2823 13.0523 42.045 13.507C42.8076 13.9543 43.409 14.5703 43.849 15.355C44.289 16.1323 44.509 17.0197 44.509 18.017C44.509 19.007 44.256 19.9053 43.75 20.712C43.2513 21.5113 42.5876 22.1493 41.759 22.626C40.9303 23.0953 40.0173 23.33 39.02 23.33ZM39.02 20.789C39.5333 20.789 40.0026 20.668 40.428 20.426C40.8533 20.1767 41.1906 19.843 41.44 19.425C41.6966 18.9997 41.825 18.5303 41.825 18.017C41.825 17.5037 41.7003 17.0343 41.451 16.609C41.2016 16.1837 40.8643 15.8463 40.439 15.597C40.021 15.3403 39.5553 15.212 39.042 15.212C38.5286 15.212 38.0593 15.3403 37.634 15.597C37.2086 15.8463 36.8713 16.1837 36.622 16.609C36.3726 17.0343 36.248 17.5037 36.248 18.017C36.248 18.5157 36.369 18.9777 36.611 19.403C36.8603 19.821 37.194 20.1583 37.612 20.415C38.0373 20.6643 38.5066 20.789 39.02 20.789Z" fill="white"/>
<rect opacity="0.3" x="66" y="11" width="449" height="8" rx="4" fill="white"/>
<rect x="66" y="11" width="21" height="8" rx="4" fill="white"/>
</svg>
