<svg width="11" height="15" viewBox="0 0 11 15" fill="none" xmlns="http://www.w3.org/2000/svg">
<path d="M8.98438 10.918C8.98438 10.1302 8.70768 9.50846 8.1543 9.05273C7.60091 8.5905 6.58854 8.1543 5.11719 7.74414C3.64583 7.32747 2.57161 6.875 1.89453 6.38672C0.93099 5.69661 0.449219 4.79167 0.449219 3.67188C0.449219 2.58464 0.895182 1.70247 1.78711 1.02539C2.68555 0.341797 3.83138 0 5.22461 0C6.16862 0 7.01172 0.182292 7.75391 0.546875C8.5026 0.911458 9.08203 1.41927 9.49219 2.07031C9.90234 2.72135 10.1074 3.44727 10.1074 4.24805H8.89648C8.89648 3.27799 8.56445 2.5 7.90039 1.91406C7.23633 1.32161 6.3444 1.02539 5.22461 1.02539C4.13737 1.02539 3.27148 1.26953 2.62695 1.75781C1.98242 2.23958 1.66016 2.87109 1.66016 3.65234C1.66016 4.375 1.94987 4.96419 2.5293 5.41992C3.10872 5.87565 4.03646 6.2793 5.3125 6.63086C6.58854 6.97591 7.55534 7.33724 8.21289 7.71484C8.87044 8.08594 9.36523 8.5319 9.69727 9.05273C10.0293 9.57357 10.1953 10.1888 10.1953 10.8984C10.1953 12.0182 9.74609 12.9167 8.84766 13.5938C7.95573 14.2708 6.77734 14.6094 5.3125 14.6094C4.3099 14.6094 3.38867 14.4303 2.54883 14.0723C1.71549 13.7142 1.08073 13.2129 0.644531 12.5684C0.214844 11.9238 0 11.1849 0 10.3516H1.20117C1.20117 11.3542 1.57552 12.1452 2.32422 12.7246C3.07292 13.304 4.06901 13.5938 5.3125 13.5938C6.41927 13.5938 7.30794 13.3496 7.97852 12.8613C8.64909 12.373 8.98438 11.7253 8.98438 10.918Z" fill="black"/>
</svg>
