<svg width="11" height="11" viewBox="0 0 11 11" fill="none" xmlns="http://www.w3.org/2000/svg">
<path d="M8.77817 0.292894C9.1687 -0.0976304 9.80186 -0.0976306 10.1924 0.292894C10.5829 0.683418 10.5829 1.31658 10.1924 1.70711L1.70711 10.1924C1.31658 10.5829 0.683417 10.5829 0.292893 10.1924C-0.0976311 9.80186 -0.097631 9.1687 0.292893 8.77817L8.77817 0.292894Z" fill="#FF2D2D"/>
<path d="M10.1924 8.77817C10.5829 9.1687 10.5829 9.80186 10.1924 10.1924C9.80186 10.5829 9.1687 10.5829 8.77817 10.1924L0.292894 1.70711C-0.0976305 1.31658 -0.0976307 0.683417 0.292894 0.292893C0.683418 -0.0976311 1.31658 -0.097631 1.70711 0.292893L10.1924 8.77817Z" fill="#FF2D2D"/>
</svg>
