<svg width="50" height="50" viewBox="0 0 50 50" fill="none" xmlns="http://www.w3.org/2000/svg">
<path d="M37.6154 17.3677C36.7 17.7692 35.7246 18.0354 34.7077 18.1646C35.7538 17.54 36.5523 16.5585 36.9277 15.3754C35.9523 15.9569 34.8754 16.3677 33.7277 16.5969C32.8015 15.6108 31.4815 15 30.0415 15C27.2477 15 24.9985 17.2677 24.9985 20.0477C24.9985 20.4477 25.0323 20.8323 25.1154 21.1985C20.92 20.9938 17.2077 18.9831 14.7138 15.92C14.2785 16.6754 14.0231 17.54 14.0231 18.4708C14.0231 20.2185 14.9231 21.7677 16.2646 22.6646C15.4538 22.6492 14.6585 22.4138 13.9846 22.0431C13.9846 22.0585 13.9846 22.0785 13.9846 22.0985C13.9846 24.5508 15.7338 26.5877 18.0277 27.0569C17.6169 27.1692 17.1692 27.2231 16.7046 27.2231C16.3815 27.2231 16.0554 27.2046 15.7492 27.1369C16.4031 29.1354 18.2585 30.6046 20.4646 30.6523C18.7477 31.9954 16.5677 32.8046 14.2077 32.8046C13.7938 32.8046 13.3969 32.7862 13 32.7354C15.2354 34.1769 17.8846 35 20.7415 35C30.0277 35 35.1046 27.3077 35.1046 20.64C35.1046 20.4169 35.0969 20.2015 35.0862 19.9877C36.0877 19.2769 36.9292 18.3892 37.6154 17.3677Z" fill="white"/>
<circle cx="25" cy="25" r="24" stroke="white" stroke-width="2"/>
</svg>
