<svg width="50" height="50" viewBox="0 0 50 50" fill="none" xmlns="http://www.w3.org/2000/svg">
<path d="M37.8545 16.9273C37.0655 15.5236 36.2091 15.2655 34.4655 15.1673C32.7236 15.0491 28.3436 15 24.5491 15C20.7473 15 16.3655 15.0491 14.6255 15.1655C12.8855 15.2655 12.0273 15.5218 11.2309 16.9273C10.4182 18.3291 10 20.7436 10 24.9945C10 24.9982 10 25 10 25C10 25.0036 10 25.0055 10 25.0055V25.0091C10 29.2418 10.4182 31.6745 11.2309 33.0618C12.0273 34.4655 12.8836 34.72 14.6236 34.8382C16.3655 34.94 20.7473 35 24.5491 35C28.3436 35 32.7236 34.94 34.4673 34.84C36.2109 34.7218 37.0673 34.4673 37.8564 33.0636C38.6764 31.6764 39.0909 29.2436 39.0909 25.0109C39.0909 25.0109 39.0909 25.0055 39.0909 25.0018C39.0909 25.0018 39.0909 24.9982 39.0909 24.9964C39.0909 20.7436 38.6764 18.3291 37.8545 16.9273ZM20.9091 30.4545V19.5455L30 25L20.9091 30.4545Z" fill="white"/>
<circle cx="25" cy="25" r="24" stroke="white" stroke-width="2"/>
</svg>
