<svg width="107" height="41" viewBox="0 0 107 41" fill="none" xmlns="http://www.w3.org/2000/svg">
<path d="M0 40.1527L0.0273644 35.7793L17.5132 20.0627C18.9726 18.7507 19.9486 17.5116 20.4411 16.3453C20.9519 15.1609 21.2073 13.9491 21.2073 12.71C21.2073 11.1976 20.8607 9.83089 20.1675 8.61C19.4743 7.38911 18.5256 6.42333 17.3216 5.71267C16.1358 5.002 14.7858 4.64667 13.2717 4.64667C11.7028 4.64667 10.3072 5.02022 9.08495 5.76733C7.86268 6.49622 6.89581 7.47111 6.18433 8.692C5.4911 9.91289 5.15361 11.2431 5.17185 12.6827H0.19155C0.19155 10.2044 0.766201 8.01778 1.9155 6.12267C3.0648 4.20933 4.62457 2.71511 6.5948 1.64C8.58327 0.546666 10.8363 0 13.3538 0C15.7983 0 17.9875 0.564888 19.9212 1.69466C21.855 2.80622 23.3782 4.32778 24.4911 6.25933C25.6221 8.17267 26.1876 10.3411 26.1876 12.7647C26.1876 14.4776 25.9687 15.9627 25.5309 17.22C25.1113 18.4773 24.4546 19.6436 23.5607 20.7187C22.6668 21.7756 21.5448 22.9053 20.1949 24.108L5.66441 37.146L5.03503 35.506H26.1876V40.1527H0Z" fill="white"/>
<path d="M44.939 41C42.385 41 40.1047 40.426 38.098 39.278C36.1095 38.1118 34.5315 36.5356 33.3639 34.5493C32.2146 32.5449 31.64 30.2671 31.64 27.716V13.284C31.64 10.7329 32.2146 8.45511 33.3639 6.45067C34.5315 4.44622 36.1095 2.87 38.098 1.722C40.1047 0.574 42.385 0 44.939 0C47.493 0 49.7734 0.574 51.7801 1.722C53.7868 2.87 55.3648 4.44622 56.5141 6.45067C57.6634 8.45511 58.2381 10.7329 58.2381 13.284V27.716C58.2381 30.2671 57.6634 32.5449 56.5141 34.5493C55.3648 36.5356 53.7868 38.1118 51.7801 39.278C49.7734 40.426 47.493 41 44.939 41ZM44.939 36.326C46.4897 36.326 47.8944 35.9524 49.1531 35.2053C50.4119 34.4582 51.4152 33.456 52.1632 32.1987C52.9112 30.9231 53.2851 29.52 53.2851 27.9893V12.9833C53.2851 11.4344 52.9112 10.0313 52.1632 8.774C51.4152 7.51667 50.4119 6.51444 49.1531 5.76733C47.8944 5.02022 46.4897 4.64667 44.939 4.64667C43.4066 4.64667 42.0019 5.02022 40.7249 5.76733C39.4662 6.51444 38.4628 7.51667 37.7149 8.774C36.9669 10.0313 36.5929 11.4344 36.5929 12.9833V27.9893C36.5929 29.52 36.9669 30.9231 37.7149 32.1987C38.4628 33.456 39.4662 34.4582 40.7249 35.2053C42.0019 35.9524 43.4066 36.326 44.939 36.326Z" fill="white"/>
<path d="M69.1825 40.18L65.8988 36.9L102.074 0.819999L105.358 4.1L69.1825 40.18ZM97.1488 41C95.3428 41 93.6918 40.5627 92.1959 39.688C90.7182 38.7951 89.5324 37.6107 88.6385 36.1347C87.7447 34.6404 87.2977 32.9822 87.2977 31.16C87.2977 29.3742 87.7538 27.7342 88.6659 26.24C89.578 24.7458 90.7821 23.5522 92.278 22.6593C93.7739 21.7664 95.3975 21.32 97.1488 21.32C98.9549 21.32 100.606 21.7664 102.102 22.6593C103.598 23.534 104.784 24.7184 105.659 26.2127C106.553 27.6887 107 29.3378 107 31.16C107 32.9822 106.553 34.6404 105.659 36.1347C104.784 37.6107 103.598 38.7951 102.102 39.688C100.606 40.5627 98.9549 41 97.1488 41ZM97.1488 36.7087C98.1522 36.7087 99.0735 36.4536 99.9127 35.9433C100.77 35.4331 101.445 34.7589 101.938 33.9207C102.448 33.0824 102.704 32.1622 102.704 31.16C102.704 30.1578 102.448 29.2376 101.938 28.3993C101.445 27.5429 100.77 26.8687 99.9127 26.3767C99.0735 25.8664 98.1522 25.6113 97.1488 25.6113C96.1455 25.6113 95.2242 25.8664 94.3851 26.3767C93.5459 26.8687 92.8709 27.5429 92.3601 28.3993C91.8493 29.2376 91.5939 30.1578 91.5939 31.16C91.5939 32.1622 91.8493 33.0824 92.3601 33.9207C92.8709 34.7589 93.5459 35.4331 94.3851 35.9433C95.2242 36.4536 96.1455 36.7087 97.1488 36.7087ZM74.1081 19.68C72.3021 19.68 70.6511 19.2427 69.1552 18.368C67.6592 17.4751 66.4643 16.2907 65.5704 14.8147C64.6948 13.3204 64.257 11.6622 64.257 9.84C64.257 8.05422 64.713 6.41422 65.6252 4.92C66.5373 3.42578 67.7413 2.23222 69.2373 1.33933C70.7332 0.446443 72.3568 0 74.1081 0C75.9141 0 77.556 0.446443 79.0337 1.33933C80.5296 2.214 81.7245 3.39844 82.6184 4.89267C83.5123 6.36867 83.9593 8.01778 83.9593 9.84C83.9593 11.6622 83.5123 13.3204 82.6184 14.8147C81.7245 16.2907 80.5296 17.4751 79.0337 18.368C77.556 19.2427 75.9141 19.68 74.1081 19.68ZM74.1081 15.3887C75.1115 15.3887 76.0327 15.1336 76.8719 14.6233C77.7293 14.1131 78.4043 13.4389 78.8969 12.6007C79.4077 11.7624 79.6631 10.8422 79.6631 9.84C79.6631 8.83778 79.4077 7.91755 78.8969 7.07933C78.4043 6.22289 77.7293 5.54867 76.8719 5.05667C76.0327 4.54644 75.1115 4.29133 74.1081 4.29133C73.1047 4.29133 72.1835 4.54644 71.3443 5.05667C70.5051 5.54867 69.8301 6.22289 69.3193 7.07933C68.8085 7.91755 68.5531 8.83778 68.5531 9.84C68.5531 10.8422 68.8085 11.7624 69.3193 12.6007C69.8301 13.4389 70.5051 14.1131 71.3443 14.6233C72.1835 15.1336 73.1047 15.3887 74.1081 15.3887Z" fill="#FFD74B"/>
</svg>
