<svg width="187" height="80" viewBox="0 0 187 80" fill="none" xmlns="http://www.w3.org/2000/svg">
<path d="M20.7818 44.1094H8.5157L6.48605 49.9778H0L11.0748 19.1359H18.2668L29.3416 49.9778H22.8115L20.7818 44.1094ZM19.1052 39.1677L14.6488 26.2838L10.1924 39.1677H19.1052Z" fill="black"/>
<path d="M39.6584 17.3269V49.9778H33.4813V17.3269H39.6584Z" fill="black"/>
<path d="M51.9387 17.3269V49.9778H45.7615V17.3269H51.9387Z" fill="black"/>
<path d="M64.219 19.1801V49.9778H58.0418V19.1801H64.219Z" fill="black"/>
<path d="M83.8677 25.1808C86.7798 25.1808 89.1331 26.1073 90.9274 27.9605C92.7217 29.7842 93.6189 32.3434 93.6189 35.6379V49.9778H87.4417V36.4762C87.4417 34.5348 86.9563 33.0493 85.9856 32.0198C85.0149 30.9608 83.6913 30.4314 82.0146 30.4314C80.3085 30.4314 78.9554 30.9608 77.9553 32.0198C76.9846 33.0493 76.4992 34.5348 76.4992 36.4762V49.9778H70.3221V25.5337H76.4992V28.5782C77.3229 27.5193 78.3671 26.6956 79.632 26.1073C80.9262 25.4896 82.3382 25.1808 83.8677 25.1808Z" fill="black"/>
<path d="M113.789 50.2866C110.906 50.2866 108.259 49.6101 105.847 48.257C103.435 46.9039 101.523 45.036 100.111 42.6534C98.6989 40.2413 97.9929 37.5204 97.9929 34.4907C97.9929 31.4903 98.6989 28.7988 100.111 26.4162C101.523 24.0041 103.435 22.1216 105.847 20.7685C108.259 19.4154 110.906 18.7388 113.789 18.7388C116.701 18.7388 119.348 19.4154 121.731 20.7685C124.143 22.1216 126.04 24.0041 127.423 26.4162C128.835 28.7988 129.541 31.4903 129.541 34.4907C129.541 37.5204 128.835 40.2413 127.423 42.6534C126.04 45.036 124.143 46.9039 121.731 48.257C119.319 49.6101 116.672 50.2866 113.789 50.2866ZM113.789 44.7713C115.642 44.7713 117.275 44.3595 118.686 43.5358C120.098 42.6828 121.201 41.4768 121.996 39.9178C122.79 38.3588 123.187 36.5497 123.187 34.4907C123.187 32.4316 122.79 30.6373 121.996 29.1077C121.201 27.5487 120.098 26.3574 118.686 25.5337C117.275 24.7101 115.642 24.2983 113.789 24.2983C111.936 24.2983 110.288 24.7101 108.847 25.5337C107.435 26.3574 106.332 27.5487 105.538 29.1077C104.744 30.6373 104.347 32.4316 104.347 34.4907C104.347 36.5497 104.744 38.3588 105.538 39.9178C106.332 41.4768 107.435 42.6828 108.847 43.5358C110.288 44.3595 111.936 44.7713 113.789 44.7713Z" fill="black"/>
<path d="M147.682 25.1808C150.594 25.1808 152.947 26.1073 154.742 27.9605C156.536 29.7842 157.433 32.3434 157.433 35.6379V49.9778H151.256V36.4762C151.256 34.5348 150.771 33.0493 149.8 32.0198C148.829 30.9608 147.506 30.4314 145.829 30.4314C144.123 30.4314 142.77 30.9608 141.77 32.0198C140.799 33.0493 140.314 34.5348 140.314 36.4762V49.9778H134.136V25.5337H140.314V28.5782C141.137 27.5193 142.181 26.6956 143.446 26.1073C144.741 25.4896 146.152 25.1808 147.682 25.1808Z" fill="black"/>
<path d="M186.031 37.2263C186.031 38.1087 185.972 38.9029 185.854 39.6089H167.984C168.131 41.3738 168.749 42.7563 169.838 43.7564C170.926 44.7566 172.264 45.2566 173.853 45.2566C176.147 45.2566 177.78 44.2712 178.75 42.3004H185.413C184.707 44.6536 183.354 46.595 181.354 48.1246C179.353 49.6248 176.897 50.3749 173.985 50.3749C171.632 50.3749 169.514 49.8601 167.631 48.8306C165.778 47.7716 164.322 46.2862 163.263 44.3742C162.234 42.4622 161.719 40.256 161.719 37.7558C161.719 35.226 162.234 33.0052 163.263 31.0932C164.293 29.1812 165.734 27.7105 167.587 26.6809C169.44 25.6514 171.573 25.1366 173.985 25.1366C176.309 25.1366 178.383 25.6367 180.206 26.6368C182.06 27.6369 183.486 29.0636 184.486 30.9167C185.516 32.7405 186.031 34.8436 186.031 37.2263ZM179.633 35.4614C179.603 33.8729 179.03 32.6081 177.912 31.6668C176.794 30.6961 175.426 30.2108 173.809 30.2108C172.279 30.2108 170.985 30.6814 169.926 31.6227C168.896 32.5346 168.264 33.8141 168.028 35.4614H179.633Z" fill="black"/>
<path d="M67.9631 62.748C67.9631 64.7937 67.2925 66.4416 65.9515 67.6918C64.6104 68.9419 62.5988 69.567 59.9167 69.567H55.1093V79.7273H52.7227V55.895H59.9167C62.5761 55.895 64.5763 56.52 65.9174 57.7702C67.2812 59.0203 67.9631 60.6796 67.9631 62.748ZM59.9167 67.5213C63.6444 67.5213 65.5082 65.9302 65.5082 62.748C65.5082 61.1569 65.065 59.9522 64.1785 59.134C63.2921 58.3157 61.8714 57.9066 59.9167 57.9066H55.1093V67.5213H59.9167Z" fill="black"/>
<path d="M80.1163 80C78.3661 80 76.7864 79.6136 75.3771 78.8408C73.9906 78.0453 72.8882 76.9315 72.0699 75.4995C71.2744 74.0448 70.8766 72.3514 70.8766 70.4194C70.8766 68.4873 71.2857 66.8053 72.104 65.3733C72.9223 63.9186 74.036 62.8049 75.4453 62.032C76.8545 61.2365 78.4343 60.8387 80.1845 60.8387C81.9347 60.8387 83.5144 61.2365 84.9237 62.032C86.3556 62.8049 87.4694 63.9186 88.265 65.3733C89.0832 66.8053 89.4924 68.4873 89.4924 70.4194C89.4924 72.3287 89.0832 74.0107 88.265 75.4654C87.4467 76.9201 86.3216 78.0453 84.8896 78.8408C83.4576 79.6136 81.8665 80 80.1163 80ZM80.1163 77.9202C81.3437 77.9202 82.4802 77.6475 83.5258 77.102C84.5714 76.5337 85.4124 75.6927 86.0488 74.5789C86.708 73.4425 87.0375 72.0559 87.0375 70.4194C87.0375 68.7828 86.7193 67.4077 86.0829 66.2939C85.4465 65.1574 84.6054 64.3164 83.5599 63.7709C82.5143 63.2026 81.3778 62.9185 80.1504 62.9185C78.923 62.9185 77.7865 63.2026 76.7409 63.7709C75.6953 64.3164 74.8543 65.1574 74.2179 66.2939C73.6042 67.4077 73.2973 68.7828 73.2973 70.4194C73.2973 72.0559 73.6042 73.4425 74.2179 74.5789C74.8543 75.6927 75.684 76.5337 76.7068 77.102C77.7524 77.6475 78.8889 77.9202 80.1163 77.9202Z" fill="black"/>
<path d="M92.7519 70.3853C92.7519 68.476 93.1383 66.8053 93.9111 65.3733C94.6839 63.9186 95.7409 62.8049 97.0819 62.032C98.4457 61.2365 99.98 60.8387 101.685 60.8387C103.321 60.8387 104.799 61.2365 106.117 62.032C107.435 62.8276 108.401 63.8618 109.015 65.1347V54.4971H111.402V79.7273H109.015V75.5677C108.447 76.8633 107.515 77.9316 106.219 78.7726C104.924 79.5909 103.401 80 101.651 80C99.9459 80 98.4116 79.6023 97.0479 78.8067C95.7068 78.0112 94.6498 76.886 93.877 75.4313C93.1269 73.9766 92.7519 72.2946 92.7519 70.3853ZM109.015 70.4194C109.015 68.9192 108.708 67.6009 108.095 66.4644C107.481 65.3279 106.64 64.4528 105.572 63.8391C104.526 63.2254 103.367 62.9185 102.094 62.9185C100.776 62.9185 99.5936 63.214 98.548 63.805C97.5025 64.3959 96.6728 65.2597 96.0591 66.3962C95.4681 67.5099 95.1726 68.8396 95.1726 70.3853C95.1726 71.9082 95.4681 73.2493 96.0591 74.4085C96.6728 75.545 97.5025 76.4201 98.548 77.0338C99.5936 77.6248 100.776 77.9202 102.094 77.9202C103.367 77.9202 104.526 77.6134 105.572 76.9997C106.64 76.386 107.481 75.5109 108.095 74.3744C108.708 73.2379 109.015 71.9195 109.015 70.4194Z" fill="black"/>
<path d="M115.759 70.4194C115.759 68.4873 116.146 66.8053 116.919 65.3733C117.691 63.9186 118.76 62.8049 120.123 62.032C121.487 61.2365 123.044 60.8387 124.794 60.8387C127.09 60.8387 128.977 61.407 130.454 62.5435C131.954 63.68 132.92 65.2256 133.352 67.1804H130.795C130.477 65.8393 129.784 64.7937 128.715 64.0436C127.67 63.2708 126.363 62.8844 124.794 62.8844C123.544 62.8844 122.419 63.1685 121.419 63.7368C120.419 64.305 119.623 65.1574 119.032 66.2939C118.464 67.4077 118.18 68.7828 118.18 70.4194C118.18 72.0559 118.464 73.4425 119.032 74.5789C119.623 75.7154 120.419 76.5678 121.419 77.1361C122.419 77.7043 123.544 77.9884 124.794 77.9884C126.363 77.9884 127.67 77.6134 128.715 76.8633C129.784 76.0905 130.477 75.0222 130.795 73.6584H133.352C132.92 75.5677 131.954 77.102 130.454 78.2612C128.954 79.4204 127.067 80 124.794 80C123.044 80 121.487 79.6136 120.123 78.8408C118.76 78.0453 117.691 76.9315 116.919 75.4995C116.146 74.0448 115.759 72.3514 115.759 70.4194Z" fill="black"/>
<path d="M136.669 70.3853C136.669 68.476 137.044 66.8053 137.794 65.3733C138.567 63.9186 139.624 62.8049 140.965 62.032C142.329 61.2365 143.863 60.8387 145.568 60.8387C147.341 60.8387 148.864 61.2479 150.136 62.0661C151.432 62.8844 152.364 63.93 152.932 65.2029V61.1115H155.319V79.7273H152.932V75.6018C152.341 76.8747 151.398 77.9316 150.102 78.7726C148.83 79.5909 147.307 80 145.534 80C143.852 80 142.329 79.6023 140.965 78.8067C139.624 78.0112 138.567 76.886 137.794 75.4313C137.044 73.9766 136.669 72.2946 136.669 70.3853ZM152.932 70.4194C152.932 68.9192 152.625 67.6009 152.012 66.4644C151.398 65.3279 150.557 64.4528 149.489 63.8391C148.443 63.2254 147.284 62.9185 146.011 62.9185C144.693 62.9185 143.511 63.214 142.465 63.805C141.42 64.3959 140.59 65.2597 139.976 66.3962C139.385 67.5099 139.09 68.8396 139.09 70.3853C139.09 71.9082 139.385 73.2493 139.976 74.4085C140.59 75.545 141.42 76.4201 142.465 77.0338C143.511 77.6248 144.693 77.9202 146.011 77.9202C147.284 77.9202 148.443 77.6134 149.489 76.9997C150.557 76.386 151.398 75.5109 152.012 74.3744C152.625 73.2379 152.932 71.9195 152.932 70.4194Z" fill="black"/>
<path d="M167.177 80C165.041 80 163.29 79.5113 161.927 78.534C160.586 77.5338 159.836 76.1814 159.676 74.4767H162.131C162.245 75.5222 162.734 76.3746 163.597 77.0338C164.484 77.6702 165.666 77.9884 167.143 77.9884C168.439 77.9884 169.45 77.6816 170.178 77.0679C170.928 76.4542 171.303 75.6927 171.303 74.7835C171.303 74.1471 171.098 73.6243 170.689 73.2152C170.28 72.806 169.757 72.4878 169.121 72.2605C168.507 72.0105 167.666 71.7491 166.598 71.4763C165.211 71.1126 164.086 70.749 163.222 70.3853C162.359 70.0216 161.62 69.4874 161.006 68.7828C160.415 68.0555 160.12 67.0894 160.12 65.8848C160.12 64.9756 160.392 64.1346 160.938 63.3617C161.483 62.5889 162.256 61.9752 163.256 61.5206C164.256 61.066 165.393 60.8387 166.666 60.8387C168.666 60.8387 170.28 61.3501 171.507 62.373C172.735 63.3731 173.394 64.7596 173.485 66.5326H171.098C171.03 65.4415 170.598 64.5664 169.803 63.9073C169.03 63.2254 167.961 62.8844 166.598 62.8844C165.393 62.8844 164.416 63.1685 163.666 63.7368C162.915 64.305 162.54 65.0097 162.54 65.8507C162.54 66.578 162.756 67.1804 163.188 67.6577C163.643 68.1123 164.2 68.476 164.859 68.7487C165.518 68.9988 166.404 69.2829 167.518 69.6011C168.859 69.9648 169.928 70.3171 170.723 70.658C171.519 70.999 172.201 71.499 172.769 72.1582C173.337 72.8174 173.633 73.6925 173.655 74.7835C173.655 75.7836 173.383 76.6815 172.837 77.477C172.292 78.2498 171.53 78.8635 170.553 79.3181C169.575 79.7727 168.45 80 167.177 80Z" fill="black"/>
<path d="M181.25 63.1231V74.6812C181.25 75.8177 181.466 76.6019 181.898 77.0338C182.33 77.4656 183.092 77.6816 184.183 77.6816H186.365V79.7273H183.808C182.126 79.7273 180.875 79.3409 180.057 78.5681C179.239 77.7725 178.83 76.4769 178.83 74.6812V63.1231H176.239V61.1115H178.83V56.4405H181.25V61.1115H186.365V63.1231H181.25Z" fill="black"/>
<rect x="97.7122" width="32.0893" height="50.6023" rx="16.0446" fill="#55B719"/>
<mask id="mask0_1_156" style="mask-type:alpha" maskUnits="userSpaceOnUse" x="97" y="0" width="33" height="51">
<rect x="97.712" width="32.0893" height="50.6023" rx="16.0446" fill="#424242"/>
</mask>
<g mask="url(#mask0_1_156)">
<rect x="138.55" y="14.1458" width="6.77818" height="24.1657" rx="3.38909" transform="rotate(90 138.55 14.1458)" fill="white"/>
<rect x="106.428" y="14.1458" width="6.77818" height="17.9769" rx="3.38909" transform="rotate(90 106.428 14.1458)" fill="white"/>
<rect x="138.55" y="24.4604" width="6.77818" height="24.1657" rx="3.38909" transform="rotate(90 138.55 24.4604)" fill="white"/>
<rect x="106.428" y="24.4604" width="6.77818" height="17.9769" rx="3.38909" transform="rotate(90 106.428 24.4604)" fill="white"/>
</g>
<path d="M128.972 56.4357L118.215 46.2684L125.288 41.1111L128.972 56.4357Z" fill="#55B719"/>
</svg>
