<svg width="893" height="486" viewBox="0 0 893 486" fill="none" xmlns="http://www.w3.org/2000/svg">
<g filter="url(#filter0_d_2_6)">
<rect x="54" y="39" width="548" height="148" rx="74" fill="white"/>
<rect x="207" y="103" width="6" height="19" rx="3" fill="#55B719"/>
<rect x="219" y="89" width="6" height="47" rx="3" fill="#55B719"/>
<rect x="231" y="99" width="6" height="31" rx="3" fill="#55B719"/>
<rect x="267" y="99" width="6" height="31" rx="3" fill="#55B719"/>
<rect x="279" y="99" width="6" height="31" rx="3" fill="#55B719"/>
<rect x="243" y="89" width="6" height="47" rx="3" fill="#55B719"/>
<rect x="291" y="89" width="6" height="47" rx="3" fill="#55B719"/>
<rect x="255" y="103" width="6" height="19" rx="3" fill="#55B719"/>
<rect x="302" y="103" width="6" height="19" rx="3" fill="#55B719"/>
<rect x="314" y="89" width="6" height="47" rx="3" fill="#55B719"/>
<rect x="326" y="99" width="6" height="31" rx="3" fill="#55B719"/>
<rect x="362" y="99" width="6" height="31" rx="3" fill="#55B719"/>
<rect x="374" y="99" width="6" height="31" rx="3" fill="#55B719"/>
<rect x="338" y="89" width="6" height="47" rx="3" fill="#55B719"/>
<rect x="386" y="89" width="6" height="47" rx="3" fill="#55B719"/>
<rect x="350" y="103" width="6" height="19" rx="3" fill="#55B719"/>
<rect x="397" y="103" width="6" height="19" rx="3" fill="#55B719"/>
<rect x="409" y="89" width="6" height="47" rx="3" fill="#55B719"/>
<rect x="421" y="99" width="6" height="31" rx="3" fill="#55B719"/>
<rect x="457" y="99" width="6" height="31" rx="3" fill="#55B719"/>
<rect x="469" y="99" width="6" height="31" rx="3" fill="#55B719"/>
<rect x="433" y="89" width="6" height="47" rx="3" fill="#55B719"/>
<rect x="481" y="89" width="6" height="47" rx="3" fill="#55B719"/>
<rect x="445" y="103" width="6" height="19" rx="3" fill="#55B719"/>
<rect width="6" height="19" rx="3" transform="matrix(-1 0 0 1 570 103)" fill="#55B719"/>
<rect width="6" height="47" rx="3" transform="matrix(-1 0 0 1 558 89)" fill="#55B719"/>
<rect width="6" height="31" rx="3" transform="matrix(-1 0 0 1 546 99)" fill="#55B719"/>
<rect width="6" height="31" rx="3" transform="matrix(-1 0 0 1 510 99)" fill="#55B719"/>
<rect width="6" height="31" rx="3" transform="matrix(-1 0 0 1 498 99)" fill="#55B719"/>
<rect width="6" height="47" rx="3" transform="matrix(-1 0 0 1 534 89)" fill="#55B719"/>
<rect width="6" height="19" rx="3" transform="matrix(-1 0 0 1 522 103)" fill="#55B719"/>
<circle cx="125" cy="113" r="48" fill="#55B719"/>
<path d="M135.267 116.084L122.548 126.591C119.939 128.746 116 126.891 116 123.507L116 102.493C116 99.1094 119.939 97.254 122.548 99.4088L135.267 109.916C137.204 111.516 137.204 114.484 135.267 116.084Z" fill="white"/>
</g>
<g filter="url(#filter1_d_2_6)">
<rect x="291" y="269" width="548" height="148" rx="74" fill="white"/>
<rect x="444" y="333" width="6" height="19" rx="3" fill="#FFD74B"/>
<rect x="456" y="319" width="6" height="47" rx="3" fill="#FFD74B"/>
<rect x="468" y="329" width="6" height="31" rx="3" fill="#FFD74B"/>
<rect x="504" y="329" width="6" height="31" rx="3" fill="#FFD74B"/>
<rect x="516" y="329" width="6" height="31" rx="3" fill="#FFD74B"/>
<rect x="480" y="319" width="6" height="47" rx="3" fill="#FFD74B"/>
<rect x="528" y="319" width="6" height="47" rx="3" fill="#FFD74B"/>
<rect x="492" y="333" width="6" height="19" rx="3" fill="#FFD74B"/>
<rect x="539" y="333" width="6" height="19" rx="3" fill="#FFD74B"/>
<rect x="551" y="319" width="6" height="47" rx="3" fill="#FFD74B"/>
<rect x="563" y="329" width="6" height="31" rx="3" fill="#FFD74B"/>
<rect x="599" y="329" width="6" height="31" rx="3" fill="#FFD74B"/>
<rect x="611" y="329" width="6" height="31" rx="3" fill="#FFD74B"/>
<rect x="575" y="319" width="6" height="47" rx="3" fill="#FFD74B"/>
<rect x="623" y="319" width="6" height="47" rx="3" fill="#FFD74B"/>
<rect x="587" y="333" width="6" height="19" rx="3" fill="#FFD74B"/>
<rect x="634" y="333" width="6" height="19" rx="3" fill="#FFD74B"/>
<rect x="646" y="319" width="6" height="47" rx="3" fill="#FFD74B"/>
<rect x="658" y="329" width="6" height="31" rx="3" fill="#FFD74B"/>
<rect x="694" y="329" width="6" height="31" rx="3" fill="#FFD74B"/>
<rect x="706" y="329" width="6" height="31" rx="3" fill="#FFD74B"/>
<rect x="670" y="319" width="6" height="47" rx="3" fill="#FFD74B"/>
<rect x="718" y="319" width="6" height="47" rx="3" fill="#FFD74B"/>
<rect x="682" y="333" width="6" height="19" rx="3" fill="#FFD74B"/>
<rect width="6" height="19" rx="3" transform="matrix(-1 0 0 1 807 333)" fill="#FFD74B"/>
<rect width="6" height="47" rx="3" transform="matrix(-1 0 0 1 795 319)" fill="#FFD74B"/>
<rect width="6" height="31" rx="3" transform="matrix(-1 0 0 1 783 329)" fill="#FFD74B"/>
<rect width="6" height="31" rx="3" transform="matrix(-1 0 0 1 747 329)" fill="#FFD74B"/>
<rect width="6" height="31" rx="3" transform="matrix(-1 0 0 1 735 329)" fill="#FFD74B"/>
<rect width="6" height="47" rx="3" transform="matrix(-1 0 0 1 771 319)" fill="#FFD74B"/>
<rect width="6" height="19" rx="3" transform="matrix(-1 0 0 1 759 333)" fill="#FFD74B"/>
<circle cx="362" cy="343" r="48" fill="#FFD74B"/>
<path d="M372.267 346.084L359.548 356.591C356.939 358.746 353 356.891 353 353.507L353 332.493C353 329.109 356.939 327.254 359.548 329.409L372.267 339.916C374.204 341.516 374.204 344.484 372.267 346.084Z" fill="white"/>
</g>
<defs>
<filter id="filter0_d_2_6" x="0" y="0" width="656" height="256" filterUnits="userSpaceOnUse" color-interpolation-filters="sRGB">
<feFlood flood-opacity="0" result="BackgroundImageFix"/>
<feColorMatrix in="SourceAlpha" type="matrix" values="0 0 0 0 0 0 0 0 0 0 0 0 0 0 0 0 0 0 127 0" result="hardAlpha"/>
<feOffset dy="15"/>
<feGaussianBlur stdDeviation="27"/>
<feComposite in2="hardAlpha" operator="out"/>
<feColorMatrix type="matrix" values="0 0 0 0 0 0 0 0 0 0 0 0 0 0 0 0 0 0 0.11 0"/>
<feBlend mode="normal" in2="BackgroundImageFix" result="effect1_dropShadow_2_6"/>
<feBlend mode="normal" in="SourceGraphic" in2="effect1_dropShadow_2_6" result="shape"/>
</filter>
<filter id="filter1_d_2_6" x="237" y="230" width="656" height="256" filterUnits="userSpaceOnUse" color-interpolation-filters="sRGB">
<feFlood flood-opacity="0" result="BackgroundImageFix"/>
<feColorMatrix in="SourceAlpha" type="matrix" values="0 0 0 0 0 0 0 0 0 0 0 0 0 0 0 0 0 0 127 0" result="hardAlpha"/>
<feOffset dy="15"/>
<feGaussianBlur stdDeviation="27"/>
<feComposite in2="hardAlpha" operator="out"/>
<feColorMatrix type="matrix" values="0 0 0 0 0 0 0 0 0 0 0 0 0 0 0 0 0 0 0.11 0"/>
<feBlend mode="normal" in2="BackgroundImageFix" result="effect1_dropShadow_2_6"/>
<feBlend mode="normal" in="SourceGraphic" in2="effect1_dropShadow_2_6" result="shape"/>
</filter>
</defs>
</svg>
